HIERARCHY
ROOT SpineBase
{
  OFFSET 0.000000 0.000000 0.000000
  CHANNELS 6 Xposition Yposition Zposition Zrotation Xrotation Yrotation
  JOINT SpineMid
  {
    OFFSET 0.000000 26.197957 0.000000
    CHANNELS 3 Zrotation Xrotation Yrotation
    JOINT SpineShoulder
    {
      OFFSET -0.005990 19.487717 -0.676557
      CHANNELS 3 Zrotation Xrotation Yrotation
      JOINT Neck
      {
        OFFSET -0.020438 6.464047 -0.501475
        CHANNELS 3 Zrotation Xrotation Yrotation
        JOINT Head
        {
          OFFSET 0.113793 12.656967 -0.685595
          CHANNELS 3 Zrotation Xrotation Yrotation
          End Site
          {
            OFFSET 0 0 0
          }
        }
      }
      JOINT ShoulderLeft
      {
        OFFSET -13.450382 -3.775500 -6.842986
        CHANNELS 3 Zrotation Xrotation Yrotation
        JOINT ElbowLeft
        {
          OFFSET -1.414748 -23.364015 -3.792932
          CHANNELS 3 Zrotation Xrotation Yrotation
          JOINT WristLeft
          {
            OFFSET 6.960577 -18.120794 -5.465648
            CHANNELS 3 Zrotation Xrotation Yrotation
            JOINT HandLeft
            {
              OFFSET 2.317001 -3.821910 -0.124507
              CHANNELS 3 Zrotation Xrotation Yrotation
              JOINT HandTipLeft
              {
                OFFSET 2.404381 -4.718252 -0.824691
                CHANNELS 3 Zrotation Xrotation Yrotation
                End Site
                {
                  OFFSET 0 0 0
                }
              }
              JOINT ThumbLeft
              {
                OFFSET -1.911182 0.476293 -1.698160
                CHANNELS 3 Zrotation Xrotation Yrotation
                End Site
                {
                  OFFSET 0 0 0
                }
              }
            }
          }
        }
      }
      JOINT ShoulderRight
      {
        OFFSET 12.327974 -3.496577 2.678270
        CHANNELS 3 Zrotation Xrotation Yrotation
        JOINT ElbowRight
        {
          OFFSET 2.693222 -24.240974 0.178174
          CHANNELS 3 Zrotation Xrotation Yrotation
          JOINT WristRight
          {
            OFFSET 1.532735 -20.132192 -7.377180
            CHANNELS 3 Zrotation Xrotation Yrotation
            JOINT HandRight
            {
              OFFSET -2.174299 -2.909415 -1.292672
              CHANNELS 3 Zrotation Xrotation Yrotation
              JOINT HandTipRight
              {
                OFFSET 0.244904 -4.539960 -1.802077
                CHANNELS 3 Zrotation Xrotation Yrotation
                End Site
                {
                  OFFSET 0 0 0
                }
              }
              JOINT ThumbRight
              {
                OFFSET 1.651303 0.296593 -1.553221
                CHANNELS 3 Zrotation Xrotation Yrotation
                End Site
                {
                  OFFSET 0 0 0
                }
              }
            }
          }
        }
      }
    }
  }
  JOINT HipLeft
  {
    OFFSET -5.505231 0.413590 -4.997697
    CHANNELS 3 Zrotation Xrotation Yrotation
    JOINT KneeLeft
    {
      OFFSET -3.075414 -31.551675 0.901589
      CHANNELS 3 Zrotation Xrotation Yrotation
      JOINT AnkleLeft
      {
        OFFSET -1.009122 -33.627074 12.183740
        CHANNELS 3 Zrotation Xrotation Yrotation
        JOINT FootLeft
        {
          OFFSET 3.550028 -5.561463 -4.686828
          CHANNELS 3 Zrotation Xrotation Yrotation
          End Site
          {
            OFFSET 0 0 0
          }
        }
      }
    }
  }
  JOINT HipRight
  {
    OFFSET 5.242548 0.847042 -1.204568
    CHANNELS 3 Zrotation Xrotation Yrotation
    JOINT KneeRight
    {
      OFFSET -2.298584 -25.980129 -10.796344
      CHANNELS 3 Zrotation Xrotation Yrotation
      JOINT AnkleRight
      {
        OFFSET -3.759518 -34.893995 18.579134
        CHANNELS 3 Zrotation Xrotation Yrotation
        JOINT FootRight
        {
          OFFSET 3.076199 -3.380555 -11.482353
          CHANNELS 3 Zrotation Xrotation Yrotation
          End Site
          {
            OFFSET 0 0 0
          }
        }
      }
    }
  }
}
MOTION
Frames: 14
Frame Time: 0.033333
16.581835 70.571774 373.572729 -0.000000 0.000000 -19.439068 -0.000000 0.000000 19.439068 -0.000000 0.000000 0.000000 -0.000000 0.000000 0.000000 0.000000 0.000000 0.000000 -0.000000 0.000000 0.000000 -0.000000 0.000000 0.000000 -0.000000 0.000000 0.000000 -0.000000 0.000000 0.000000 0.000000 0.000000 0.000000 0.000000 0.000000 0.000000 -0.000000 0.000000 0.000000 -0.000000 0.000000 0.000000 -0.000000 0.000000 0.000000 -0.000000 0.000000 0.000000 0.000000 0.000000 0.000000 0.000000 0.000000 0.000000 -0.000000 0.000000 19.439068 -0.000000 0.000000 0.000000 -0.000000 0.000000 0.000000 0.000000 0.000000 0.000000 -0.000000 0.000000 19.439068 -0.000000 0.000000 0.000000 -0.000000 0.000000 0.000000 0.000000 0.000000 0.000000
16.692182 70.617186 373.731605 0.129806 -0.221899 -19.962500 -0.197765 0.164250 19.963035 -0.000000 0.000000 0.000000 -0.000000 0.000000 0.000000 0.000000 0.000000 0.000000 -0.000000 0.000000 0.000000 -3.255136 -0.533390 0.771537 -1.607433 1.970133 0.349392 1.560802 0.229792 0.435916 0.000000 0.000000 0.000000 0.000000 0.000000 0.000000 -0.000000 0.000000 0.000000 0.034284 -0.849488 -0.077192 1.626903 1.390321 -1.106476 -4.450914 -0.691811 2.222830 0.000000 0.000000 0.000000 0.000000 0.000000 0.000000 -0.197765 0.164250 19.963035 -0.000000 0.000000 0.000000 -0.000000 0.000000 0.000000 0.000000 0.000000 0.000000 -0.068328 2.370291 19.420654 -0.855973 -2.037395 0.524296 -0.000000 0.000000 0.000000 0.000000 0.000000 0.000000
16.764839 70.652057 373.839221 0.209755 -0.370919 -20.356304 -0.325685 0.274786 20.357764 -0.000000 0.000000 0.000000 -0.000000 0.000000 0.000000 0.000000 0.000000 0.000000 -0.659283 -0.698026 0.145374 -5.078008 -0.119573 1.319541 -2.680162 3.299368 0.640141 3.183450 0.490414 0.785265 0.000000 0.000000 0.000000 0.000000 0.000000 0.000000 -0.000000 0.000000 0.000000 0.059031 -1.051931 -0.101516 3.107077 2.569012 -2.574894 -8.336547 -2.386231 4.419258 0.000000 0.000000 0.000000 0.000000 0.000000 0.000000 -1.303579 0.109268 20.315196 2.152912 -0.068999 0.473868 -1.453111 0.664021 0.298909 0.000000 0.000000 0.000000 0.036438 3.908879 19.397795 -2.592836 -4.034086 0.354251 1.045185 0.719970 0.474431 0.000000 0.000000 0.000000
16.799806 70.676389 373.895578 0.239585 -0.446639 -20.622371 -0.381548 0.333630 20.624416 -0.000000 0.000000 0.000000 -0.000000 0.000000 0.000000 0.000000 0.000000 0.000000 -1.111420 -0.940628 0.228439 -6.153972 0.138798 1.750633 -3.184907 3.894806 0.731086 4.331903 0.975980 1.172608 0.000000 0.000000 0.000000 0.000000 0.000000 0.000000 -0.000000 0.000000 0.000000 -0.000000 0.000000 0.000000 4.598720 2.864808 -4.381506 -11.631500 -5.026608 6.494027 0.000000 0.000000 0.000000 0.000000 0.000000 0.000000 -1.633560 -0.032380 20.580987 2.944567 0.164920 0.635462 -1.847701 1.691944 0.812942 0.000000 0.000000 0.000000 0.329562 4.647178 19.365313 -3.482045 -4.594975 0.399915 1.379476 0.751650 0.647592 0.000000 0.000000 0.000000
16.797085 70.690181 373.900675 0.219165 -0.448830 -20.761542 -0.364040 0.341990 20.763487 -0.000000 0.000000 0.000000 -0.000000 0.000000 0.000000 0.000000 0.000000 0.000000 -1.648819 -1.105584 0.318948 -6.088304 0.652236 1.980306 -3.223472 3.746600 0.578204 4.801792 1.780584 1.639915 0.000000 0.000000 0.000000 0.000000 0.000000 0.000000 -0.132525 -1.090424 -0.123394 0.130200 1.090704 0.120894 6.019775 4.556767 -6.456919 -14.298983 -8.565956 8.410179 0.000000 0.000000 0.000000 0.000000 0.000000 0.000000 -1.749398 -0.296694 20.730927 3.546631 0.575436 0.740839 -2.040219 3.153992 1.553552 0.000000 0.000000 0.000000 0.822306 4.600156 19.324337 -4.122020 -4.200026 0.410158 1.590231 0.563542 0.781429 0.000000 0.000000 0.000000
16.756674 70.693434 373.854513 0.148493 -0.377446 -20.773551 -0.272713 0.300239 20.774755 -0.000000 0.000000 0.000000 -0.000000 0.000000 0.000000 0.000000 0.000000 0.000000 -2.273383 -1.188362 0.417692 -4.859931 1.407644 1.979150 -2.968534 2.902903 0.231111 4.623369 2.921654 2.179849 0.000000 0.000000 0.000000 0.000000 0.000000 0.000000 0.245186 -1.898285 -0.204985 -0.184916 4.147457 0.352315 7.398534 4.311605 -8.711376 -16.288680 -12.963546 10.184958 0.000000 0.000000 0.000000 0.000000 0.000000 0.000000 -1.653237 -0.681081 20.765050 3.959501 1.161643 0.787959 -2.053427 5.022126 2.503721 0.000000 0.000000 0.000000 1.522049 3.763526 19.283721 -4.519345 -2.841534 0.401375 1.678198 0.154956 0.876645 0.000000 0.000000 0.000000
16.651933 70.698180 373.810362 -0.017383 -0.320967 -20.913747 -0.098336 0.306026 20.913961 -0.000000 0.000000 0.000000 -0.000000 0.000000 0.000000 0.000000 0.000000 0.000000 -2.848294 -1.305258 0.509250 -2.951596 2.439331 1.835548 -2.423837 -0.058224 -1.364141 4.105968 7.697836 4.648629 0.000000 0.000000 0.000000 0.000000 0.000000 0.000000 0.776035 -2.727552 -0.278656 -0.921251 7.191045 0.700978 8.865799 3.658668 -10.567240 -14.845134 -21.912423 10.742041 0.000000 0.000000 0.000000 0.000000 0.000000 0.000000 -1.390962 -1.068337 20.936959 4.691933 1.767664 0.948147 -2.467472 17.519095 9.103383 0.000000 0.000000 0.000000 1.949424 4.329194 19.185891 -4.824033 -3.358389 0.656469 1.563970 0.216523 0.808485 0.000000 0.000000 0.000000
16.620918 70.699444 373.803906 -0.060492 -0.325161 -20.845861 -0.059178 0.325403 20.845857 -0.000000 0.000000 0.000000 -0.000000 0.000000 0.000000 0.000000 0.000000 0.000000 -3.374945 -1.589974 0.597763 -0.472555 3.673544 1.471822 -2.006284 0.046241 -0.538000 3.447804 5.647461 3.123613 0.000000 0.000000 0.000000 0.000000 0.000000 0.000000 1.497610 -3.968622 -0.377554 -1.531465 10.384610 0.944685 11.840947 6.447716 -15.849725 -13.139881 -27.354869 14.840268 0.000000 0.000000 0.000000 0.000000 0.000000 0.000000 -1.340632 -1.495421 20.901348 5.161053 2.670989 0.960423 -2.489088 20.466400 10.472662 0.000000 0.000000 0.000000 2.719213 1.440545 19.551564 -4.305984 0.607720 0.479197 1.308873 -0.738290 0.783177 0.000000 0.000000 0.000000
16.495443 70.638453 373.577664 -0.256136 0.036237 -20.262397 0.252835 0.054711 20.262357 -0.000000 0.000000 0.000000 -0.000000 0.000000 0.000000 0.000000 0.000000 0.000000 -4.503394 -1.337870 0.759489 4.169376 4.346602 0.444566 -1.729162 -0.634423 0.188314 1.553778 5.456419 2.631582 0.000000 0.000000 0.000000 0.000000 0.000000 0.000000 2.300836 -5.373085 -0.471291 -3.626027 17.113827 2.189515 16.499863 2.210040 -18.154369 -21.119189 -30.035707 16.865378 0.000000 0.000000 0.000000 0.000000 0.000000 0.000000 -0.581490 -2.127067 20.374472 4.395864 3.638412 0.695093 -1.149661 16.569083 8.100177 0.000000 0.000000 0.000000 4.515562 -4.320937 19.874039 -3.461169 8.051442 0.029216 0.920545 -2.494557 0.770723 0.000000 0.000000 0.000000
16.700590 70.515583 372.983710 0.071843 0.974859 -19.101314 0.251144 -0.944692 19.102773 -0.000000 0.000000 0.000000 -0.000000 0.000000 0.000000 0.000000 0.000000 0.000000 -6.566245 -0.530985 1.065899 10.459994 4.794500 -0.735679 -2.084422 -1.279485 1.225186 0.945615 2.723132 0.631488 0.000000 0.000000 0.000000 0.000000 0.000000 0.000000 3.357673 -7.592282 -0.594982 -5.061464 25.169702 3.184157 17.183464 0.184321 -20.467450 -25.621171 -29.702429 18.758080 0.000000 0.000000 0.000000 0.000000 0.000000 0.000000 -0.658307 -4.521341 19.301433 4.507952 5.535137 0.335491 -0.126281 12.605700 5.953094 0.000000 0.000000 0.000000 6.158148 -12.954083 20.386195 -1.924377 18.213601 -1.079418 0.570151 -4.919633 0.839671 0.000000 0.000000 0.000000
16.020425 70.510485 372.266875 -1.055039 2.048970 -17.427850 1.040259 -0.787332 17.447548 0.298523 -0.985996 0.012626 -0.000000 0.000000 0.000000 0.000000 0.000000 0.000000 -8.693808 0.811505 1.418389 16.889980 4.670107 -1.713398 -1.207503 -2.494599 2.021883 -2.415530 1.753505 -0.133116 0.000000 0.000000 0.000000 0.000000 0.000000 0.000000 4.564045 -9.538019 -0.644360 -5.055215 32.787556 3.105449 16.707542 -4.029480 -20.447777 -20.910226 -27.244384 20.283813 0.000000 0.000000 0.000000 0.000000 0.000000 0.000000 2.447562 -6.223279 17.959612 2.827889 7.503065 0.011324 -0.003116 11.939794 6.072285 0.000000 0.000000 0.000000 10.413230 -21.202977 20.361498 -1.760007 29.132434 -1.734962 0.262510 -7.835886 0.968225 0.000000 0.000000 0.000000
15.288212 70.390215 371.392684 -2.004623 3.237007 -16.359341 1.306426 -1.027394 16.395682 0.705686 -1.034686 0.020797 0.335223 -0.847607 0.025791 0.000000 0.000000 0.000000 -11.096081 1.379788 1.789568 24.448693 5.622678 -2.382383 -1.944086 -5.082252 2.540474 -1.107119 4.583509 0.225100 0.000000 0.000000 0.000000 0.000000 0.000000 0.000000 6.021877 -12.006166 -0.532862 -3.366976 38.787754 1.643760 11.602696 -5.559957 -20.702533 -9.707139 -26.064667 21.688325 0.000000 0.000000 0.000000 0.000000 0.000000 0.000000 5.517277 -8.542492 17.397174 0.966368 9.843805 -0.349933 0.567842 4.580883 2.414471 0.000000 0.000000 0.000000 14.959816 -29.014605 21.383149 -2.291013 40.049067 -2.288133 0.355857 -11.256468 1.369761 0.000000 0.000000 0.000000
14.578775 70.326098 370.909915 -2.754642 3.790923 -15.302506 1.135678 -0.961631 15.335882 1.238325 -1.285025 0.037397 -0.211150 -1.358329 -0.011825 0.000000 0.000000 0.000000 -13.254066 3.032117 2.251852 30.854419 6.121588 -2.304139 -1.705839 -6.940990 3.381594 -2.174916 5.703770 0.023339 0.000000 0.000000 0.000000 0.000000 0.000000 0.000000 7.176317 -13.663958 -0.424435 0.116017 42.992555 -1.245047 6.638712 -4.881415 -22.416273 -5.310951 -18.834313 23.116421 0.000000 0.000000 0.000000 0.000000 0.000000 0.000000 7.901798 -9.615180 16.755590 -0.658925 11.355436 -0.499780 1.608152 0.986329 0.085463 0.000000 0.000000 0.000000 18.495442 -34.241826 22.044853 -3.458946 48.700176 -2.349665 0.674514 -14.602474 1.898904 0.000000 0.000000 0.000000
13.893447 70.307385 370.793317 -3.318409 3.707846 -14.340823 0.641954 -0.588990 14.348020 1.721387 -1.360265 0.047211 -0.074758 -1.544379 -0.000771 0.000000 0.000000 0.000000 -15.375398 5.094008 2.842332 37.626040 6.860516 -1.870241 -1.487299 -5.512393 5.827571 -2.796139 2.201286 -2.387384 0.000000 0.000000 0.000000 0.000000 0.000000 0.000000 7.949805 -14.437232 -0.320933 4.785972 44.591361 -4.932639 1.632691 -4.892378 -22.679355 -10.649628 -12.281815 23.092679 0.000000 0.000000 0.000000 0.000000 0.000000 0.000000 9.722947 -9.473588 16.022437 -2.156646 12.084719 -0.514022 0.884611 -7.151353 -4.028668 0.000000 0.000000 0.000000 20.804103 -36.793602 21.925814 -5.599630 54.371999 -1.544406 1.496677 -14.485205 3.574021 0.000000 0.000000 0.000000
